# xmcd
#
# Track frame offsets: 
#        150
#        15518
#        31138
#        47289
#        65032
#        85847
#        106203
#        111128
#        130748
#        150026
#        174459
#        193366
#        207226
#        224599
#        242892
#
# Disc length: 3441 seconds
#
# Revision: 0
# Processed by: cddbd v1.5.1PL2 Copyright (c) Steve Scherf et al.
# Submitted via: ExactAudioCopy v0.95b3
#
DISCID=c40d6f0f
DTITLE=Outlandish - Bread and Barrels of Water
DYEAR=2003
DGENRE=R&B
TTITLE0=Introduction
TTITLE1=Guantanamo
TTITLE2=Peelo
TTITLE3=Walou
TTITLE4=Aicha
TTITLE5=Gritty
TTITLE6=Interlude
TTITLE7=If Only
TTITLE8=Fatima's Hand (feat. Majid)
TTITLE9=El Moro (feat. Majid)
TTITLE10=Eyes Never Dry
TTITLE11=A Donkey Named Cheetah (feat. Majid)
TTITLE12=Dirty Dirty East
TTITLE13=Life is A Loom
TTITLE14=Bumpy
EXTD=
EXTT0=
EXTT1=
EXTT2=
EXTT3=
EXTT4=
EXTT5=
EXTT6=
EXTT7=
EXTT8=
EXTT9=
EXTT10=
EXTT11=
EXTT12=
EXTT13=
EXTT14=
PLAYORDER=
